HIERARCHY
ROOT Hips
{
  OFFSET -125.086 92.215 135.881
  CHANNELS 6 Xposition Yposition Zposition Zrotation Xrotation Yrotation
  JOINT LeftUpLeg
  {
    OFFSET 8.64259 1.95398 -2.38835
    CHANNELS 3 Zrotation Xrotation Yrotation
    JOINT LeftLeg
    {
      OFFSET 43.7702 0 0
      CHANNELS 3 Zrotation Xrotation Yrotation
      JOINT LeftFoot
      {
        OFFSET 40.6238 0 0
        CHANNELS 3 Zrotation Xrotation Yrotation
        JOINT LeftToeBase
        {
          OFFSET 12.7242 0 0
          CHANNELS 3 Zrotation Xrotation Yrotation
          End Site
          {
            OFFSET 0 0 0
          }
        }
      }
    }
  }
  JOINT RightUpLeg
  {
    OFFSET -8.2249 1.95398 -2.59336
    CHANNELS 3 Zrotation Xrotation Yrotation
    JOINT RightLeg
    {
      OFFSET 43.5653 0 0
      CHANNELS 3 Zrotation Xrotation Yrotation
      JOINT RightFoot
      {
        OFFSET 40.6238 0 0
        CHANNELS 3 Zrotation Xrotation Yrotation
        JOINT RightToeBase
        {
          OFFSET 12.7242 0 0
          CHANNELS 3 Zrotation Xrotation Yrotation
          End Site
          {
            OFFSET 0 0 0
          }
        }
      }
    }
  }
  JOINT Spine
  {
    OFFSET 0.165834 0.87714 6.61349
    CHANNELS 3 Zrotation Xrotation Yrotation
    JOINT Spine1
    {
      OFFSET 7.38963 1.71661e-005 0
      CHANNELS 3 Zrotation Xrotation Yrotation
      JOINT Spine2
      {
        OFFSET 11.9445 1.14441e-005 0
        CHANNELS 3 Zrotation Xrotation Yrotation
        JOINT Spine3
        {
          OFFSET 14.7254 4.19617e-005 0
          CHANNELS 3 Zrotation Xrotation Yrotation
          JOINT Spine4
          {
            OFFSET 10.9679 0 0
            CHANNELS 3 Zrotation Xrotation Yrotation
            JOINT RightShoulder
            {
              OFFSET 2.46616 -1.6653 3.69651
              CHANNELS 3 Zrotation Xrotation Yrotation
              JOINT RightArm
              {
                OFFSET 13.0012 0 0
                CHANNELS 3 Zrotation Xrotation Yrotation
                JOINT RightForeArm
                {
                  OFFSET 28.7848 1.52588e-005 0
                  CHANNELS 3 Zrotation Xrotation Yrotation
                  JOINT RightHand
                  {
                    OFFSET 26.5688 1.52588e-005 0
                    CHANNELS 3 Zrotation Xrotation Yrotation
                    End Site
                    {
                      OFFSET 0 0 0
                    }
                  }
                }
              }
            }
            JOINT LeftShoulder
            {
              OFFSET 2.38034 -1.29275 -3.7523
              CHANNELS 3 Zrotation Xrotation Yrotation
              JOINT LeftArm
              {
                OFFSET 16.3182 6.10352e-005 0
                CHANNELS 3 Zrotation Xrotation Yrotation
                JOINT LeftForeArm
                {
                  OFFSET 27.0901 0 0
                  CHANNELS 3 Zrotation Xrotation Yrotation
                  JOINT LeftHand
                  {
                    OFFSET 24.5451 1.52588e-005 0
                    CHANNELS 3 Zrotation Xrotation Yrotation
                    End Site
                    {
                      OFFSET 0 0 0
                    }
                  }
                }
              }
            }
            JOINT Neck
            {
              OFFSET 5.0226 -0.0266342 0
              CHANNELS 3 Zrotation Xrotation Yrotation
              JOINT Head
              {
                OFFSET 6.69363 2.86102e-005 0
                CHANNELS 3 Zrotation Xrotation Yrotation
                End Site
                {
                  OFFSET 0 0 0
                }
              }
            }
          }
        }
      }
    }
  }
}
MOTION
Frames:	12
Frame Time:	0.0416667
242.012 79.5331 -261.375 -146.293 54.4695 -40.8955 134.581 26.4135 71.4205 -107.725 -12.1493 3.67234 45.4974 -2.95793 -12.6518 87.3472 -14.1406 -20.8823 156.426 28.7835 44.121 -86.8474 -20.6309 13.9996 89.4135 -15.1035 0.577429 -0.691608 5.40502 -1.48414 -6.81262 8.45919 -87.6572 10.2913 -12.5051 5.72601 -1.33384 -12.2414 6.27644 -24.3465 -13.6382 1.64081 -4.33385 -13.6382 1.6408 78.1774 -50.4207 -118.685 -162.931 -82.076 156.17 159.081 64.9453 -134.705 -16.1449 2.3673 -22.524 -24.9247 -61.2115 164.357 -161.007 -18.2754 -90.263 -155.193 25.8105 -60.7518 21.8088 -15.81 -69.9798 76.7526 8.92222 -40.0444 -125.557 15.06 22.4241 
242.407 79.5839 -261.76 -146.45 54.2375 -40.8404 134.492 26.5397 71.1991 -107.71 -14.2237 3.65228 44.4623 -3.24962 -13.818 86.5895 -14.8622 -23.0871 156.154 28.3351 44.1742 -87.4783 -20.0378 13.855 93.1116 -17.1461 0.431563 -6.81329 5.39516 1.23732 -6.82538 8.45617 -87.6236 10.3008 -12.515 5.79505 -1.32458 -12.2481 6.34578 -24.3371 -13.6683 1.70368 -4.32444 -13.6683 1.70368 78.1238 -50.4827 -118.737 76.8182 -85.8737 35.0185 156.172 75.9202 -129.59 -15.1422 2.34545 -23.5694 -24.924 -61.2243 164.35 -158.267 -18.3584 -89.3882 -154.673 28.5235 -61.8753 22.0941 -16.1279 -70.4074 76.2276 9.0733 -40.3331 -125.983 14.5782 22.646 
243.526 79.727 -262.859 -146.896 53.5939 -40.6829 134.215 26.8907 70.6294 -107.627 -20.4773 3.64138 41.3774 -3.99915 -17.1707 83.8453 -16.826 -30.0402 155.306 26.9862 44.372 -88.8005 -18.2491 13.4462 103.553 -22.8477 0.533603 -22.6688 2.99101 9.95194 -6.86059 8.44554 -87.5292 10.332 -12.5409 5.99016 -1.29409 -12.2656 6.54169 -24.3059 -13.7517 1.88198 -4.29329 -13.7517 1.88198 77.9658 -50.6594 -118.893 43.9295 -60.3739 0.296329 30.4162 73.7279 -0.624636 -13.794 2.43101 -26.144 -24.914 -61.2661 164.338 -149.972 -18.4182 -86.6568 -152.581 36.5981 -65.7302 22.8804 -17.0567 -71.7028 74.7107 9.54851 -41.1343 -127.154 13.2151 23.2384 
245.254 79.9513 -264.573 -147.579 52.6335 -40.4375 133.704 27.3827 69.9149 -107.371 -31.1719 3.79955 36.2173 -4.95414 -22.2055 77.6045 -19.0904 -42.8835 154.228 24.9839 44.4239 -90.0474 -15.2333 12.827 118.761 -30.6548 2.05168 -39.4533 -7.25104 24.4207 -6.91248 8.42234 -87.3848 10.3936 -12.5764 6.29054 -1.23375 -12.2878 6.84306 -24.2438 -13.8756 2.15803 -4.23112 -13.8756 2.15803 77.7015 -50.9363 -119.16 42.9898 -31.2628 -1.77089 23.2904 41.2523 0.0734426 -14.0776 2.75927 -28.3762 -24.8609 -61.3469 164.353 -135.64 -17.811 -81.7528 -146.287 49.9532 -74.8109 23.9843 -18.5909 -74.0503 72.2964 10.4273 -42.306 -128.864 11.1386 24.0375 
247.481 80.2568 -266.796 -148.443 51.4593 -40.1187 132.946 27.8276 69.2005 -106.76 -45.9025 4.47219 29.3786 -6.05647 -27.3859 66.8542 -19.1134 -61.7516 153.924 23.0832 43.5903 -91.7022 -11.9219 12.0906 134.611 -38.4885 4.45469 -42.1979 -25.394 44.9588 -6.97525 8.37992 -87.2042 10.4979 -12.615 6.67101 -1.13112 -12.3098 7.22449 -24.1376 -14.0266 2.5098 -4.12492 -14.0266 2.50981 77.3266 -51.2879 -119.553 43.1289 -8.57556 -0.863913 12.0612 20.2244 0.00694406 -15.0432 3.03661 -28.9587 -24.6829 -61.4974 164.473 -115.343 -15.2963 -74.8206 -123.211 66.2017 -101.567 25.2369 -20.8935 -77.91 69.1094 11.818 -43.6478 -130.886 8.56964 24.8529 
250.13 80.6346 -269.415 -149.437 50.1689 -39.7384 132.097 27.9968 68.3744 -104.851 -63.6466 6.76501 22.3593 -6.53811 -30.8774 54.8076 -14.9519 -82.8568 155.001 21.7501 41.6469 -95.5012 -6.51447 11.1729 148.519 -43.4775 7.80988 -17.3064 -36.7959 78.5507 -7.04352 8.31128 -87.0052 10.6573 -12.6537 7.098 -0.973866 -12.3298 7.65231 -23.9749 -14.1916 2.90633 -3.9623 -14.1916 2.90633 76.8453 -51.6608 -120.086 42.6879 6.49123 1.72738 2.6079 7.65102 0.00155784 -15.1636 2.93089 -27.9669 -24.1761 -61.799 164.886 -91.4896 -9.83341 -67.4617 135.952 76.8551 -19.7293 26.9589 -22.9329 -84.8031 65.3279 13.8241 -44.9008 -133.013 5.77261 25.5254 
253.138 81.0403 -272.325 -150.519 48.8497 -39.3046 131.406 27.8278 67.2173 -97.7482 -78.6648 14.6718 17.5012 -8.70081 -30.6271 46.9767 -8.85066 -98.4178 157.256 20.7493 39.0417 -101.051 -1.52564 10.1617 156.904 -48.1573 7.85932 17.85 -23.4535 107.656 -7.1109 8.21433 -86.8191 10.8734 -12.6935 7.51037 -0.75987 -12.3516 8.06555 -23.755 -14.3532 3.28871 -3.74236 -14.3532 3.2887 76.3088 -51.9224 -120.741 41.4564 15.8181 5.46688 -4.27518 -0.657856 0.3593 -13.5858 2.34585 -25.7389 -22.7531 -62.4801 166.125 -68.5938 -2.55907 -61.9298 -7.20891 18.784 1.97296 82.697 -24.3203 3.19486 61.2675 16.5703 -45.6591 -135.09 3.12154 25.9527 
256.413 81.4305 -275.437 -151.651 47.5764 -38.8226 130.913 27.4307 65.7845 -5.34956 -87.234 108.13 15.6349 -11.0001 -28.3962 44.274 -5.06691 -110.343 160.208 19.6077 36.3201 -107.533 2.72159 9.01629 158.261 -54.0393 3.1008 42.3346 1.21142 110.638 -7.15191 8.0932 -86.7362 11.1297 -12.7258 7.72493 -0.504703 -12.3746 8.28107 -23.4974 -14.4484 3.48405 -3.48475 -14.4484 3.48404 75.9831 -51.7256 -121.293 39.4735 21.3183 9.77513 -9.65666 -6.00885 -3.67856 -9.91 1.45252 -23.1057 -18.0612 -64.2934 170.354 -49.7491 3.55804 -58.7938 20.4644 71.7037 -73.7516 -9.07312 0.942922 57.2662 57.5014 20.5755 -44.7562 -136.906 1.51159 26.1232 
259.846 81.8044 -278.664 -152.807 46.4063 -38.2964 130.493 26.9097 64.3127 51.3738 -80.2972 166.076 15.8233 -12.8377 -25.7475 44.6293 -6.50632 -117.49 163.429 17.9462 33.865 -114.264 7.35325 7.78425 151.103 -59.7821 -7.63687 65.2607 19.1928 95.7355 -7.1585 7.93914 -86.811 11.4404 -12.76 7.63671 -0.193012 -12.4125 8.19466 -23.191 -14.4544 3.38865 -3.17832 -14.4544 3.38865 75.9729 -50.8649 -121.694 36.7692 24.5926 14.3568 -15.5699 -6.5775 -19.5447 -4.94399 0.611817 -21.9018 -7.32601 -67.1205 -179.71 -34.916 6.96587 -56.7231 16.1013 53.0797 -66.5923 -13.1441 -4.06168 36.012 53.6765 26.1329 -41.3073 -138.021 1.32352 26.2823 
263.334 82.1795 -281.917 -153.968 45.3794 -37.7283 130.07 26.322 62.9613 56.643 -74.3429 172.695 16.8431 -14.0955 -23.4993 46.3537 -10.7352 -121.244 166.577 15.5233 31.9105 -120.156 8.31603 6.48412 127.69 -65.8128 -32.6469 88.5776 25.048 72.8686 -7.17454 7.76282 -87.0043 11.7907 -12.8666 7.32856 0.160226 -12.5325 7.89208 -22.8546 -14.4634 3.05951 -2.84195 -14.4634 3.05951 76.0644 -49.2098 -122.32 33.8791 26.6306 18.9117 -19.4737 -3.75387 -35.0855 -0.459396 -0.0565455 -23.5197 10.5235 -69.3039 -162.836 -23.017 8.09451 -54.7107 15.3836 42.9646 -67.2877 -12.5716 -2.22405 19.2937 49.162 32.6524 -35.4699 -138.313 2.13543 26.7621 
266.779 82.5668 -285.108 -155.125 44.524 -37.1191 129.641 25.7086 61.7924 57.8801 -70.0058 175.37 17.9242 -14.9229 -21.8889 48.5797 -16.0002 -122.574 169.36 12.2214 30.5985 -125.517 9.94731 5.28566 99.1045 -64.0575 -60.7406 106.823 21.9542 52.6184 -7.18687 7.6694 -87.2226 11.9669 -12.9861 6.93781 0.339994 -12.6689 7.5077 -22.6938 -14.4598 2.64731 -2.68119 -14.4598 2.6473 76.4219 -46.9846 -122.836 32.1735 28.0587 22.3084 -20.5955 -0.031272 -47.6726 2.5141 -0.642778 -27.2516 31.5029 -69.1022 -142.819 -13.1172 8.08652 -53.0814 14.8547 35.8763 -69.0336 -11.4068 -0.94478 6.44806 45.0617 38.3188 -28.75 -138.697 3.39558 27.3722 
270.081 82.9663 -288.146 -156.275 43.8612 -36.4678 129.248 25.1032 60.8164 58.0149 -66.8219 176.966 18.7342 -15.4889 -20.8722 50.9225 -21.0697 -122.373 171.515 8.11368 29.9873 -130.001 10.5884 4.24233 79.8797 -56.8939 -78.333 118.44 15.602 38.6039 -7.13709 7.58296 -87.607 11.9864 -13.0589 6.05136 0.363477 -12.7809 6.62658 -22.6795 -14.2609 1.77636 -2.66687 -14.2609 1.77635 77.6665 -43.7925 -122.476 30.5678 29.9015 24.5055 -20.0763 3.34657 -57.6242 4.14706 -1.13764 -31.2886 57.775 -65.0554 -118.696 -2.81909 6.71533 -52.1052 14.018 31.1324 -71.173 -10.3164 -0.206106 -2.70653 40.2453 46.3447 -20.3072 -139.787 6.03845 28.3628 
